[hls @ 000001e3d2ed65c0] Opening 'https://tv.kooraiq.com:4433/beIN_sport6/tracks-v1a1/2025/08/16/09/56/26-10000.ts' for reading
[hls @ 000001e3d2ed65c0] Opening 'https://tv.kooraiq.com:4433/beIN_sport6/tracks-v1a1/2025/08/16/09/56/36-10000.ts' for reading
[h264 @ 000001e3d34fd780] Increasing reorder buffer to 2
Input #0, hls, from 'https://tv.kooraiq.com:4433/beIN_sport6/tracks-v1a1/mono.m3u8':
  Duration: N/A, start: 32774.780678, bitrate: N/A
  Program 0 
    Metadata:
      variant_bitrate : 0
  Stream #0:0: Video: h264 (Main) ([27][0][0][0] / 0x001B), yuvj420p(pc, smpte170m), 1280x720 [SAR 1:1 DAR 16:9], 25 fps, 25 tbr, 90k tbn, start 32774.886433
    Metadata:
      variant_bitrate : 0
  Stream #0:1: Audio: aac (LC) ([15][0][0][0] / 0x000F), 44100 Hz, stereo, fltp, start 32774.780678
    Metadata:
      variant_bitrate : 0
Stream mapping:
  Stream #0:0 -> #0:0 (h264 (native) -> h264 (libx264))
  Stream #0:1 -> #0:1 (aac (native) -> aac (native))
[libx264 @ 000001e3d2ed3f80] using SAR=1/1
[libx264 @ 000001e3d2ed3f80] using cpu capabilities: MMX2 SSE2Fast SSSE3 SSE4.2 AVX
[libx264 @ 000001e3d2ed3f80] profile High, level 3.1, 4:2:0, 8-bit
[libx264 @ 000001e3d2ed3f80] 264 - core 165 r3222 b35605a - H.264/MPEG-4 AVC codec - Copyleft 2003-2025 - http://www.videolan.org/x264.html - options: cabac=1 ref=1 deblock=1:0:0 analyse=0x3:0x113 me=hex subme=2 psy=1 psy_rd=1.00:0.00 mixed_ref=0 me_range=16 chroma_me=1 trellis=0 8x8dct=1 cqm=0 deadzone=21,11 fast_pskip=1 chroma_qp_offset=0 threads=22 lookahead_threads=5 sliced_threads=0 nr=0 decimate=1 interlaced=0 bluray_compat=0 constrained_intra=0 bframes=3 b_pyramid=2 b_adapt=1 b_bias=0 direct=1 weightb=1 open_gop=0 weightp=1 keyint=250 keyint_min=25 scenecut=40 intra_refresh=0 rc_lookahead=10 rc=crf mbtree=1 crf=23.0 qcomp=0.60 qpmin=0 qpmax=69 qpstep=4 vbv_maxrate=3000 vbv_bufsize=6000 crf_max=0.0 nal_hrd=none filler=0 ip_ratio=1.40 aq=1:1.00
Output #0, hls, to 'live\channel_19\stream.m3u8':
  Metadata:
    encoder         : Lavf62.1.103
  Stream #0:0: Video: h264, yuvj420p(pc, smpte170m, progressive), 1280x720 [SAR 1:1 DAR 16:9], q=2-31, 25 fps, 90k tbn
    Metadata:
      encoder         : Lavc62.8.100 libx264
      variant_bitrate : 0
    Side data:
      cpb: bitrate max/min/avg: 3000000/0/0 buffer size: 6000000 vbv_delay: N/A
  Stream #0:1: Audio: aac (LC), 44100 Hz, stereo, fltp, 128 kb/s
    Metadata:
      encoder         : Lavc62.8.100 aac
      variant_bitrate : 0
frame=    0 fps=0.0 q=0.0 size=N/A time=N/A bitrate=N/A speed=N/A elapsed=0:00:00.51    frame=    0 fps=0.0 q=0.0 size=N/A time=N/A bitrate=N/A speed=N/A elapsed=0:00:01.03    frame=    0 fps=0.0 q=0.0 size=N/A time=N/A bitrate=N/A speed=N/A elapsed=0:00:01.55    frame=    0 fps=0.0 q=0.0 size=N/A time=N/A bitrate=N/A speed=N/A elapsed=0:00:02.06    frame=    0 fps=0.0 q=0.0 size=N/A time=N/A bitrate=N/A speed=N/A elapsed=0:00:02.57    frame=    0 fps=0.0 q=0.0 size=N/A time=N/A bitrate=N/A speed=N/A elapsed=0:00:03.09    frame=    1 fps=0.3 q=28.0 size=N/A time=-00:00:00.04 bitrate=N/A speed=N/A elapsed=0:00:03.61    frame=    4 fps=1.0 q=28.0 size=N/A time=00:00:00.08 bitrate=N/A speed=0.0194x elapsed=0:00:04.12    frame=    7 fps=1.5 q=28.0 size=N/A time=00:00:00.20 bitrate=N/A speed=0.0431x elapsed=0:00:04.63    frame=   12 fps=2.3 q=28.0 size=N/A time=00:00:00.40 bitrate=N/A speed=0.0777x elapsed=0:00:05.15    frame=   14 fps=2.5 q=26.0 size=N/A time=00:00:00.48 bitrate=N/A speed=0.0847x elapsed=0:00:05.66    frame=   16 fps=2.6 q=28.0 size=N/A time=00:00:00.56 bitrate=N/A speed=0.0906x elapsed=0:00:06.18    frame=   19 fps=2.8 q=28.0 size=N/A time=00:00:00.68 bitrate=N/A speed=0.102x elapsed=0:00:06.69    frame=   23 fps=3.2 q=28.0 size=N/A time=00:00:00.84 bitrate=N/A speed=0.116x elapsed=0:00:07.21    frame=   26 fps=3.4 q=28.0 size=N/A time=00:00:00.96 bitrate=N/A speed=0.124x elapsed=0:00:07.73    frame=   31 fps=3.8 q=28.0 size=N/A time=00:00:01.16 bitrate=N/A speed=0.14x elapsed=0:00:08.25    frame=   36 fps=4.1 q=28.0 size=N/A time=00:00:01.36 bitrate=N/A speed=0.155x elapsed=0:00:08.77    frame=   51 fps=5.5 q=28.0 size=N/A time=00:00:01.96 bitrate=N/A speed=0.211x elapsed=0:00:09.29    frame=  102 fps= 10 q=28.0 size=N/A time=00:00:04.00 bitrate=N/A speed=0.408x elapsed=0:00:09.80    [hls @ 000001e3d371dd40] Opening 'live\channel_19\stream0.ts' for writing
[hls @ 000001e3d371dd40] Opening 'live\channel_19\stream.m3u8.tmp' for writing
frame=  191 fps= 19 q=28.0 size=N/A time=00:00:07.56 bitrate=N/A speed=0.732x elapsed=0:00:10.32    frame=  196 fps= 18 q=28.0 size=N/A time=00:00:07.76 bitrate=N/A speed=0.715x elapsed=0:00:10.85    [https @ 000001e3d33192c0] Opening 'https://tv.kooraiq.com:4433/beIN_sport6/tracks-v1a1/2025/08/16/09/56/46-10000.ts' for reading
frame=  220 fps= 19 q=28.0 size=N/A time=00:00:08.72 bitrate=N/A speed=0.768x elapsed=0:00:11.35    frame=  257 fps= 22 q=28.0 size=N/A time=00:00:10.20 bitrate=N/A speed=0.859x elapsed=0:00:11.87    frame=  267 fps= 22 q=28.0 size=N/A time=00:00:10.60 bitrate=N/A speed=0.856x elapsed=0:00:12.38    frame=  291 fps= 23 q=28.0 size=N/A time=00:00:11.56 bitrate=N/A speed=0.894x elapsed=0:00:12.92    [hls @ 000001e3d371dd40] Opening 'live\channel_19\stream1.ts' for writing
[hls @ 000001e3d371dd40] Opening 'live\channel_19\stream.m3u8.tmp' for writing
frame=  309 fps= 23 q=28.0 size=N/A time=00:00:12.28 bitrate=N/A speed=0.914x elapsed=0:00:13.43    frame=  320 fps= 23 q=28.0 size=N/A time=00:00:12.72 bitrate=N/A speed=0.912x elapsed=0:00:13.94    frame=  330 fps= 23 q=28.0 size=N/A time=00:00:13.12 bitrate=N/A speed=0.907x elapsed=0:00:14.46    frame=  339 fps= 23 q=28.0 size=N/A time=00:00:13.48 bitrate=N/A speed= 0.9x elapsed=0:00:14.97    frame=  344 fps= 22 q=28.0 size=N/A time=00:00:13.68 bitrate=N/A speed=0.882x elapsed=0:00:15.50    frame=  349 fps= 22 q=28.0 size=N/A time=00:00:13.88 bitrate=N/A speed=0.866x elapsed=0:00:16.02    frame=  351 fps= 21 q=28.0 size=N/A time=00:00:13.96 bitrate=N/A speed=0.844x elapsed=0:00:16.54    frame=  357 fps= 21 q=28.0 size=N/A time=00:00:14.20 bitrate=N/A speed=0.833x elapsed=0:00:17.05    frame=  361 fps= 21 q=28.0 size=N/A time=00:00:14.36 bitrate=N/A speed=0.817x elapsed=0:00:17.58    frame=  364 fps= 20 q=28.0 size=N/A time=00:00:14.48 bitrate=N/A speed= 0.8x elapsed=0:00:18.08    frame=  369 fps= 20 q=28.0 size=N/A time=00:00:14.68 bitrate=N/A speed=0.789x elapsed=0:00:18.60    frame=  375 fps= 20 q=28.0 size=N/A time=00:00:14.92 bitrate=N/A speed=0.78x elapsed=0:00:19.12    frame=  382 fps= 19 q=28.0 size=N/A time=00:00:15.20 bitrate=N/A speed=0.774x elapsed=0:00:19.63    frame=  392 fps= 19 q=28.0 size=N/A time=00:00:15.60 bitrate=N/A speed=0.774x elapsed=0:00:20.16    frame=  402 fps= 19 q=28.0 size=N/A time=00:00:16.00 bitrate=N/A speed=0.774x elapsed=0:00:20.67    frame=  414 fps= 20 q=28.0 size=N/A time=00:00:16.48 bitrate=N/A speed=0.778x elapsed=0:00:21.18    frame=  424 fps= 20 q=28.0 size=N/A time=00:00:16.88 bitrate=N/A speed=0.778x elapsed=0:00:21.69    frame=  433 fps= 19 q=28.0 size=N/A time=00:00:17.24 bitrate=N/A speed=0.776x elapsed=0:00:22.21    frame=  441 fps= 19 q=28.0 size=N/A time=00:00:17.56 bitrate=N/A speed=0.773x elapsed=0:00:22.72    [https @ 000001e3d93c9a00] Opening 'https://tv.kooraiq.com:4433/beIN_sport6/tracks-v1a1/mono.m3u8' for reading
frame=  446 fps= 19 q=28.0 size=N/A time=00:00:17.76 bitrate=N/A speed=0.764x elapsed=0:00:23.24    frame=  463 fps= 19 q=28.0 size=N/A time=00:00:18.44 bitrate=N/A speed=0.776x elapsed=0:00:23.76    [hls @ 000001e3d371dd40] Opening 'live\channel_19\stream2.ts' for writing
[hls @ 000001e3d371dd40] Opening 'live\channel_19\stream.m3u8.tmp' for writing
frame=  465 fps= 19 q=28.0 size=N/A time=00:00:18.52 bitrate=N/A speed=0.763x elapsed=0:00:24.28    frame=  472 fps= 19 q=28.0 size=N/A time=00:00:18.80 bitrate=N/A speed=0.758x elapsed=0:00:24.79    